<?xml version="1.0" encoding="utf-8"?>
<!-- Generator: Adobe Illustrator 17.1.0, SVG Export Plug-In . SVG Version: 6.00 Build 0)  -->
<!DOCTYPE svg PUBLIC "-//W3C//DTD SVG 1.1//EN" "http://www.w3.org/Graphics/SVG/1.1/DTD/svg11.dtd">
<svg version="1.1" id="content-window" xmlns="http://www.w3.org/2000/svg" xmlns:xlink="http://www.w3.org/1999/xlink" x="0px"
	 y="0px" viewBox="0 0 1010 978.4376" enable-background="new 0 0 1010 978.4376" xml:space="preserve">
<path id="content-window-content-window" fill="#323B5A" d="M812.7344,355.0782h-441.875v-63.125h441.875V355.0782z
	 M291.9531,291.9532h-94.6875v63.125h94.6875V291.9532z M812.7344,433.9844h-441.875v63.125h441.875V433.9844z M291.9531,433.9844
	h-94.6875v63.125h94.6875V433.9844z M812.7344,576.0157h-441.875v63.125h441.875V576.0157z M291.9531,576.0157h-94.6875v63.125
	h94.6875V576.0157z M812.7344,718.0469h-441.875v63.084h441.875V718.0469z M291.9531,718.0469h-94.6875v63.084h94.6875V718.0469z
	 M1010,25.2334v116.7979v836.4062H0V142.0313V25.2334C0,11.2608,11.3018,0,25.2749,0h959.4497C998.6982,0,1010,11.2608,1010,25.2334
	z M931.0938,157.8125H78.9062v741.7188h852.1876V157.8125z M250.8975,78.9063c0,15.2061,12.3701,27.5557,27.6171,27.5557
	c15.2466,0,27.5962-12.3496,27.5962-27.5557c0-15.3086-12.3496-27.6172-27.5962-27.6172
	C263.2676,51.2891,250.8975,63.5977,250.8975,78.9063z M161.7988,78.9063c0,15.2061,12.3291,27.5762,27.6172,27.5762
	c15.2471,0,27.6172-12.3701,27.6172-27.5762c0-15.3086-12.3701-27.6787-27.6172-27.6787
	C174.1279,51.2276,161.7988,63.5977,161.7988,78.9063z M72.6802,78.9063c0,15.2061,12.3906,27.5557,27.5761,27.5557
	c15.3086,0,27.6583-12.3496,27.6583-27.5557c0-15.3086-12.3497-27.6787-27.6583-27.6787
	C85.0708,51.2276,72.6802,63.5977,72.6802,78.9063z"/>
</svg>
